<svg xmlns="http://www.w3.org/2000/svg" width="100" height="100"><path d="M72.763 38.026c-2.867 0-5.5.985-7.588 2.636a12.179 12.179 0 0 0-7.587-2.636c-2.867 0-5.502.985-7.588 2.636a12.178 12.178 0 0 0-7.588-2.636c-2.866 0-5.502.985-7.587 2.636a12.182 12.182 0 0 0-7.588-2.636C20.477 38.026 15 43.503 15 50.263S20.478 62.5 27.237 62.5a12.18 12.18 0 0 0 7.588-2.636 12.184 12.184 0 0 0 7.587 2.636c2.868 0 5.502-.985 7.588-2.636a12.185 12.185 0 0 0 7.588 2.636c2.867 0 5.5-.985 7.587-2.636a12.18 12.18 0 0 0 7.588 2.636C79.523 62.5 85 57.022 85 50.263c0-6.76-5.478-12.237-12.237-12.237zm-39.94 19.838a9.497 9.497 0 0 1-5.586 1.833 9.429 9.429 0 0 1-9.434-9.434 9.429 9.429 0 0 1 9.434-9.434c2.078 0 4.025.695 5.585 1.832a12.167 12.167 0 0 0-2.647 7.602c0 2.864 1 5.517 2.647 7.601zm2.002-1.996a9.376 9.376 0 0 1-1.846-5.605c0-2.104.682-4.036 1.846-5.605a9.362 9.362 0 0 1 1.846 5.605 9.377 9.377 0 0 1-1.846 5.605zm13.173 1.997a9.395 9.395 0 0 1-5.592 1.829 9.36 9.36 0 0 1-5.579-1.83 12.252 12.252 0 0 0 2.647-7.601c0-2.875-.987-5.513-2.647-7.602a9.36 9.36 0 0 1 5.579-1.83c2.093 0 4.027.678 5.592 1.83a12.166 12.166 0 0 0-2.647 7.602c0 2.864.999 5.517 2.647 7.601zM50 55.867a9.378 9.378 0 0 1-1.846-5.605c0-2.104.683-4.036 1.846-5.605a9.362 9.362 0 0 1 1.846 5.605A9.377 9.377 0 0 1 50 55.868zm13.173 1.997a9.395 9.395 0 0 1-5.592 1.829 9.362 9.362 0 0 1-5.58-1.83 12.25 12.25 0 0 0 2.648-7.601c0-2.875-.987-5.513-2.647-7.602a9.362 9.362 0 0 1 5.579-1.83c2.093 0 4.027.678 5.592 1.83a12.166 12.166 0 0 0-2.647 7.602c0 2.864.999 5.517 2.647 7.601zm2.002-1.997a9.379 9.379 0 0 1-1.846-5.605 9.36 9.36 0 0 1 1.846-5.605 9.362 9.362 0 0 1 1.846 5.605 9.377 9.377 0 0 1-1.846 5.605zm7.588 3.829a9.497 9.497 0 0 1-5.586-1.832 12.253 12.253 0 0 0 2.647-7.602c0-2.875-.987-5.513-2.647-7.602a9.503 9.503 0 0 1 5.586-1.832 9.429 9.429 0 0 1 9.434 9.434 9.429 9.429 0 0 1-9.434 9.434z" fill="#fff"/></svg>