<svg xmlns="http://www.w3.org/2000/svg" width="100" height="100"><path d="M50.002 20C33.433 20 20 33.431 20 50c0 16.569 13.433 30 30.002 30s30-13.431 30-30c0-16.569-13.431-30-30-30zm0 .723c16.169 0 29.275 13.108 29.275 29.277S66.171 79.277 50.002 79.277c-16.17 0-29.277-13.108-29.277-29.277 0-16.17 13.108-29.277 29.277-29.277zm-1.984 1.525l-2.745.305-.304 8.234 2.136-.305.204-5.49 1.93 5.49h1.525l1.931-5.49.203 5.49 2.135.305-.304-8.234-2.745-.305-1.982 5.795zm19.978 6.313l-4.951 6.502 1.525 1.416 5.428-2.49-3.617 4.751 1.049 1.8 7.427-3.41-1.046-1.798-4.288 1.967 3.047-4.002-1.334-1.666-4.572 2.098 2.857-3.752zm-36.35.978a1.95 1.95 0 0 0-.548.117 1.99 1.99 0 0 0-.856.62c-.127.158-.254.315-.38.474-.665.829-1.326 1.658-1.989 2.486l-1.709 2.133-.113.14c-.003.003.073.061.078.065l.664.531c.836.67 1.67 1.34 2.506 2.008l2.482 1.989.633.505c.009.008.06.058.068.047l.125-.158 1.704-2.127 2.04-2.55c.352-.44.742-.853.909-1.403.085-.283.1-.579.072-.871a2.26 2.26 0 0 0-1.307-1.768c-.724-.329-1.567-.206-2.207.246-.052.038-.099.082-.148.122.106-.362.137-.727.047-1.098a1.993 1.993 0 0 0-.543-.953 1.998 1.998 0 0 0-1.528-.555zm-.146 2.065a.923.923 0 0 1 .754.294c.208.23.276.542.209.84-.077.265-.265.461-.434.672l-1.011 1.264-1.016 1.267-1.031-.826-.395-.316a3.245 3.245 0 0 1 .145-.184l1.924-2.402c.169-.211.32-.438.58-.545a.913.913 0 0 1 .275-.064zm18.502.1c-10.106 0-18.299 8.19-18.299 18.296s8.193 18.299 18.299 18.299c10.105 0 18.297-8.193 18.297-18.299s-8.192-18.297-18.297-18.297zm-.002.925V50h17.373c-.247 9.483-7.89 17.124-17.373 17.371V50H32.63c.247-9.482 7.887-17.125 17.37-17.371zm-15.645.828a.929.929 0 0 1 .866.543c.134.324.089.68-.131.955l-.653.816-1.794 2.24c-.003.004-.02.03-.024.026-.03-.024-.06-.05-.092-.074l-.488-.39-.846-.678 1.627-2.032c.265-.33.53-.66.793-.99.19-.237.428-.406.742-.416z" fill="#fff"/></svg>