<svg xmlns="http://www.w3.org/2000/svg" width="100" height="100"><path d="M46.596 42.123h.565a.35.35 0 0 1 .352.353V58.53c0 .213.166.377.377.377h4.205a.373.373 0 0 0 .378-.377V41.424a.379.379 0 0 0-.378-.378h-5.499c-.054 0-.054.052-.054.093v.893c0 .039 0 .092.054.092zm9.481 16.786h4.128c.2 0 .413-.16.495-.372l3.521-11.083c0-.003.04-.155.172-.155.125 0 .167.154.169.155l3.558 11.083c.085.216.294.372.497.372h4.127a.324.324 0 0 0 .272-.132.395.395 0 0 0 .063-.33l-5.744-17.15c-.09-.222-.314-.25-.499-.25h-6.59a.098.098 0 0 0-.094.093v.893c0 .045.047.09.094.09h.485c.21 0 .352.124.352.309 0 .06-.014.124-.042.202l-5.299 15.815a.378.378 0 0 0 .063.327.332.332 0 0 0 .272.133zM27.989 42.124a.35.35 0 0 1 .353.351v16.056a.37.37 0 0 0 .375.377h4.088a.375.375 0 0 0 .373-.377V51.78c0-.147.068-.232.187-.232.14 0 .207.096.258.172l.017.024 4.815 6.755c.155.233.437.41.656.41h4.853c.115 0 .24-.082.3-.196.062-.122.046-.26-.046-.39-.014-.022-6.085-8.607-6.147-8.694-.018-.026-.025-.043-.037-.063a.281.281 0 0 1-.03-.077c-.005-.018-.011-.034-.011-.058a.54.54 0 0 1 .074-.224l.004-.01 5.138-7.606a.359.359 0 0 0 0-.362.342.342 0 0 0-.296-.182h-4.608c-.218 0-.502.177-.66.41L33.64 47.12c-.125.186-.248.195-.271.195h-.004c-.112 0-.187-.075-.187-.19v-5.7a.376.376 0 0 0-.373-.378h-5.382a.097.097 0 0 0-.093.093v.893c0 .046.045.091.093.091zM50 65.352c-17.038 0-30.9-6.888-30.9-15.353 0-8.463 13.862-15.35 30.9-15.35 17.038 0 30.9 6.886 30.9 15.35 0 8.465-13.862 15.352-30.9 15.352zm0-32.916c-19.33 0-35 7.864-35 17.565 0 9.7 15.67 17.563 35 17.563S85 59.7 85 50 69.33 32.437 50 32.437z" fill="#fff"/></svg>