<svg xmlns="http://www.w3.org/2000/svg" width="100" height="100"><path d="M50.012 20C33.494 20 20 33.469 20 50.012 20 66.505 33.494 80 50.012 80S80 66.505 80 50.012C80 33.469 66.53 20 50.012 20zm0 3.81c14.404 0 26.177 11.775 26.177 26.204 0 14.404-11.773 26.152-26.177 26.152S23.834 64.418 23.834 50.014c0-14.429 11.774-26.203 26.178-26.203zm0 3.711c-1.942 0-3.835.246-5.63.713l5.704 15.733 5.678-15.707a22.367 22.367 0 0 0-5.752-.739zm-11.184 2.975a22.781 22.781 0 0 0-6.342 5.432l9.391 24.36 3.441-8.9h9.02l3.441 8.9 9.489-24.655a22.614 22.614 0 0 0-5.95-5.063l-6.586 18.14H45.44l-6.61-18.214zM71.053 42.05L60.36 69.947c7.178-3.76 12.118-11.281 12.118-19.933 0-2.803-.492-5.483-1.426-7.965zm-42.254.492a22.09 22.09 0 0 0-1.278 7.473c0 8.455 4.72 15.877 11.702 19.687l-10.424-27.16zm21.017 13.617l-5.8 15.043-.026.467c1.917.54 3.932.81 6.022.81 1.966 0 3.858-.245 5.677-.712l-.072-.565-5.8-15.043z" fill="#fff"/></svg>
